<svg xmlns:dc="http://purl.org/dc/elements/1.1/" xmlns:cc="http://creativecommons.org/ns#" xmlns:rdf="http://www.w3.org/1999/02/22-rdf-syntax-ns#" xmlns:svg="http://www.w3.org/2000/svg" xmlns="http://www.w3.org/2000/svg" xmlns:sodipodi="http://sodipodi.sourceforge.net/DTD/sodipodi-0.dtd" xmlns:inkscape="http://www.inkscape.org/namespaces/inkscape" version="1.1" x="0px" y="0px" viewBox="0 0 100 125"><g transform="translate(0,-952.36218)"><path d="m 7.00001,998.36219 0,40.00001 c 1.6e-4,1.5707 1.42925,2.9998 3,3 l 80,0 c 1.57075,-2e-4 2.99984,-1.4293 3,-3 l 0,-40.00001 c -1.6e-4,-1.57075 -1.42925,-2.99984 -3,-3 l -13.95727,0 c -1.58494,-0.0224 -3.04273,1.4149 -3.04273,3 0,1.5851 1.45779,3.02241 3.04273,3.00001 l 10.95727,0 0,34 -74,0 0,-34 10.95727,0 c 1.58494,0.022 3.04273,-1.41491 3.04273,-3.00001 0,-1.5851 -1.45779,-3.02241 -3.04273,-3 l -13.95727,0 c -1.63803,0.006 -3.00579,1.57558 -3,3 z" style="text-indent:0;text-transform:none;direction:ltr;block-progression:tb;baseline-shift:baseline;color:#000000;enable-background:accumulate;" fill="#2C2E31" fill-opacity="1" fill-rule="nonzero" stroke="none" marker="none" visibility="visible" display="inline" overflow="visible"/><path d="m 49.99476,1027.3621 c -0.715,-0.028 -1.5414,-0.3223 -2.0626,-0.8125 l -17.0008,-16 c -0.9743,-1.0842 -1.3765,-3.1632 -0.25,-4.375 1.1095,-1.1936 3.2613,-1.1581 4.3752,0.031 l 11.9381,11.25 0,-51.0935 c 0,-1.6568 1.3432,-3 3.0001,-3 1.6569,0 3.0001,1.3432 3.0001,3 l 0,51.0935 11.9381,-11.25 c 1.0255,-1.0237 3.253,-1.2129 4.3752,-0.031 1.1221,1.1816 0.7636,3.3353 -0.2501,4.375 l -17.0007,16 c -0.5818,0.5475 -1.2644,0.8143 -2.0626,0.8125 z" style="text-indent:0;text-transform:none;direction:ltr;block-progression:tb;baseline-shift:baseline;color:#000000;enable-background:accumulate;" fill="#2C2E31" fill-opacity="1" fill-rule="nonzero" stroke="none" marker="none" visibility="visible" display="inline" overflow="visible"/></g></svg>