<?xml version="1.0" encoding="utf-8"?>
<!-- Generator: Adobe Illustrator 23.0.2, SVG Export Plug-In . SVG Version: 6.00 Build 0)  -->
<svg version="1.1" id="Layer_1" xmlns="http://www.w3.org/2000/svg" xmlns:xlink="http://www.w3.org/1999/xlink" x="0px" y="0px"
	 viewBox="0 0 540 540" style="enable-background:new 0 0 540 540;" xml:space="preserve">
<path d="M426.3,83.3c-3.3-3.1-8.5-2.9-11.6,0.4c-3.1,3.3-2.9,8.5,0.4,11.6c43.6,40.5,68.4,97.2,68.4,156.7v89.3
	c0,11.7-7.6,22.1-18.8,25.6v-18.5c0-31.6-25.6-57.1-57.2-57.2h-5c-4.2-14.8-19.6-23.3-34.4-19.1c-12,3.4-20.2,14.4-20.2,26.8v155.2
	c0,15.4,12.4,27.8,27.7,27.9c12.5,0,23.4-8.2,26.8-20.2h5c2.3,0,4.7-0.2,7-0.5c-5,24.9-26.9,42.8-52.3,42.8H305
	c-3.4-9.8-12.7-16.3-23.1-16.4h-24c-13.6,0-24.6,11-24.6,24.6s11,24.6,24.6,24.6h24c10.4,0,19.6-6.6,23.1-16.4h57.3
	c36.3-0.1,66.5-28,69.4-64.1c20.1-9.4,33-29.5,33-51.7v-20.7c20.4-3.9,35.2-21.8,35.2-42.6V252C499.9,187.9,473.2,126.8,426.3,83.3z
	 M282,520.5h-24c-4.5,0-8.2-3.7-8.2-8.2c0-4.5,3.7-8.2,8.2-8.2h24c4.5,0,8.2,3.7,8.2,8.2C290.2,516.8,286.5,520.5,282,520.5z
	 M448.4,404.6c0,22.5-18.3,40.8-40.8,40.8h-3.8v-17.7c0-4.5-3.7-8.2-8.2-8.2s-8.2,3.7-8.2,8.2v26.4c0,6.4-5.2,11.5-11.5,11.5
	c-6.4,0-11.5-5.2-11.5-11.5V298.9c0-6.4,5.2-11.5,11.5-11.5c6.4,0,11.5,5.2,11.5,11.5v93.4c0,4.5,3.7,8.2,8.2,8.2s8.2-3.7,8.2-8.2
	v-84.7h3.8c22.5,0,40.8,18.3,40.8,40.8V404.6z M165.8,271c-15.4,0-27.9,12.5-27.9,27.9v146.5h-3.8c-22.5,0-40.8-18.3-40.8-40.8
	v-56.2c0-16.4,9.8-31.2,24.9-37.6c4.2-1.6,6.4-6.3,4.8-10.5c-1.6-4.2-6.3-6.4-10.5-4.8c-0.2,0.1-0.4,0.2-0.6,0.3
	c-21.2,8.9-34.9,29.7-34.9,52.7v19.1c-12.1-2.9-20.6-13.7-20.6-26.2V252c0-68.8,33.1-133.3,89-173.4c8.5,7.2,20.6,8.3,30.4,2.9
	c58.2-32.1,128.6-32.3,187-0.7c13,7.3,29.5,2.7,36.8-10.3c7.3-13,2.7-29.5-10.3-36.8c-0.2-0.1-0.4-0.2-0.7-0.4
	c-74.6-40.4-164.7-40-239,1c-10.9,6-16.2,18.6-13,30.6C76,107.8,40,177.6,40,252v89.3c0,21.5,15.8,39.7,37,42.8v20.5
	c0,31.6,25.6,57.1,57.2,57.2h5c4.2,14.8,19.6,23.3,34.4,19.1c12-3.4,20.2-14.4,20.2-26.8V298.9C193.7,283.5,181.2,271,165.8,271z
	 M152.4,54.9c0.8-2.7,2.6-5,5.1-6.4c69.4-38.3,153.6-38.7,223.3-0.9c5.2,2.7,7.2,9.2,4.5,14.4c-2.7,5.2-9.2,7.2-14.4,4.5
	c-0.1,0-0.2-0.1-0.3-0.2c-63.3-34.3-139.7-33.9-202.8,0.8c-5.2,2.7-11.6,0.9-14.5-4.2C152,60.5,151.6,57.6,152.4,54.9L152.4,54.9z
	 M177.3,454.1c-0.2,6.4-5.4,11.4-11.8,11.2c-6.1-0.1-11.1-5.1-11.2-11.2V298.9c0.2-6.4,5.4-11.4,11.8-11.2
	c6.1,0.1,11.1,5.1,11.2,11.2V454.1z"/>
</svg>
