<svg xmlns="http://www.w3.org/2000/svg" xmlns:xlink="http://www.w3.org/1999/xlink" xml:space="preserve" version="1.1" style="shape-rendering:geometricPrecision;text-rendering:geometricPrecision;image-rendering:optimizeQuality;" viewBox="0 0 372 487.5" x="0px" y="0px" fill-rule="evenodd" clip-rule="evenodd"><defs><style type="text/css">
   
    .fil0 {fill:black;fill-rule:nonzero}
   
  </style></defs><g><path class="fil0" d="M301 77c-11,0 -11,-16 0,-16l29 0c23,0 42,18 42,41l0 200c0,23 -19,41 -42,41l-102 0 12 30 28 0c4,0 8,3 8,8 0,5 -4,9 -8,9l-164 0c-5,0 -9,-4 -9,-9 0,-5 4,-8 9,-8l27 0 13 -30 -103 0c-22,0 -41,-18 -41,-41l0 -200c0,-23 19,-41 41,-41l30 0c11,0 11,16 0,16l-30 0c-13,0 -24,11 -24,25l0 175 338 0 0 -175c0,-14 -11,-25 -25,-25l-29 0zm-92 266l-47 0 -12 30 72 0 -13 -30zm-192 -49l0 8c0,14 11,24 24,24l289 0c14,0 25,-10 25,-24l0 -8 -338 0z"/><path class="fil0" d="M125 0l122 0c19,0 35,16 35,36l0 69c0,20 -16,36 -35,36l-37 0 -60 24c-5,3 -12,-2 -11,-8l0 -16 -14 0c-20,0 -36,-16 -36,-36l0 -69c0,-20 16,-36 36,-36zm122 17l-122 0c-11,0 -19,8 -19,19l0 69c0,11 8,19 19,19l22 0c5,0 9,4 9,9l0 12 49 -20c1,-1 2,-1 3,-1l39 0c10,0 19,-8 19,-19l0 -69c0,-11 -9,-19 -19,-19z"/></g></svg>