<?xml version="1.0" encoding="utf-8"?>
<!-- Generator: Adobe Illustrator 23.0.2, SVG Export Plug-In . SVG Version: 6.00 Build 0)  -->
<svg version="1.1" id="Слой_1" xmlns="http://www.w3.org/2000/svg" xmlns:xlink="http://www.w3.org/1999/xlink" x="0px" y="0px"
	 viewBox="0 0 96 102.4" style="enable-background:new 0 0 96 102.4;" xml:space="preserve">
<path fill="#FB656B" d="M15,15l0,18L0,33L0,9c0-5,4-9,9-9l78,0c5,0,9,4,9,9l0,24l-15,0l0-18L15,15z M49.8,34.3l20.4,28.1c0.5,0.7,0.4,1.7-0.4,2.2
	c-0.3,0.2-0.6,0.3-0.9,0.3H57l0,37.5l-18,0l0-37.5H27.1c-0.9,0-1.6-0.7-1.6-1.6c0-0.3,0.1-0.6,0.3-0.9l20.4-28.1
	c0.7-1,2.1-1.2,3-0.5C49.5,33.9,49.6,34.1,49.8,34.3z"/>
</svg>
