<?xml version="1.0" encoding="utf-8"?>
<!-- Generator: Adobe Illustrator 23.0.2, SVG Export Plug-In . SVG Version: 6.00 Build 0)  -->
<svg version="1.1" id="Слой_1" xmlns="http://www.w3.org/2000/svg" xmlns:xlink="http://www.w3.org/1999/xlink" x="0px" y="0px"
	 viewBox="0 0 101 64" style="enable-background:new 0 0 101 64;" xml:space="preserve">
<path fill="#F9B602" d="M99,6.5H88V2c0,0,0,0,0,0c0-1.1-0.9-2-2-2H34c0,0,0,0,0,0c-1.1,0-2,0.9-2,2v10H18c-0.8,0-1.4,0.4-1.8,1.1L8.5,28.5l-7.4,3.7
	C0.4,32.6,0,33.2,0,34v16c0,0,0,0,0,0c0,1.1,0.9,2,2,2h6.2c-0.3,1.3-0.3,2.7,0,4c1.1,5.4,6.4,8.9,11.8,7.8c5.4-1.1,8.9-6.4,7.8-11.8
	h28.4c-0.3,1.3-0.3,2.7,0,4c1.1,5.4,6.4,8.9,11.8,7.8c5.4-1.1,8.9-6.4,7.8-11.8H86c0,0,0,0,0,0c1.1,0,2-0.9,2-2V28h8
	c1.1,0,2-0.9,2-2s-0.9-2-2-2h-8v-4.8h1c1.1,0,2-0.9,2-2c0-1.1-0.9-2-2-2h-1v-4.8h11c1.1,0,2-0.9,2-2S100.1,6.5,99,6.5z M18,60
	c-3.3,0-6-2.7-6-6c0-3.3,2.7-6,6-6s6,2.7,6,6C24,57.3,21.3,60,18,60z M32,48h-6c0,0,0,0,0,0c-0.6-0.8-1.3-1.5-2.1-2.1
	C19.5,42.7,13.3,43.6,10,48c0,0,0,0,0,0H4V35.2l6.5-3.2H32V48z M32,28H13.2l6-12H32V28z M66,60c-3.3,0-6-2.7-6-6c0-3.3,2.7-6,6-6
	s6,2.7,6,6C72,57.3,69.3,60,66,60z M84,15.2H67c-1.1,0-2,0.9-2,2c0,1.1,0.9,2,2,2h17V24H74c-1.1,0-2,0.9-2,2s0.9,2,2,2h10v20H74
	c0,0,0,0,0,0c-1.9-2.5-4.8-4-8-4c-3.1,0-6.1,1.5-8,4c0,0,0,0,0,0H36V4h48v2.5h-7c-1.1,0-2,0.9-2,2s0.9,2,2,2h7V15.2z"/>
</svg>
