<?xml version="1.0" encoding="utf-8"?>
<!-- Generator: Adobe Illustrator 23.0.2, SVG Export Plug-In . SVG Version: 6.00 Build 0)  -->
<svg version="1.1" id="Слой_1" xmlns="http://www.w3.org/2000/svg" xmlns:xlink="http://www.w3.org/1999/xlink" x="0px" y="0px"
	 viewBox="0 0 100 125" style="enable-background:new 0 0 100 125;" xml:space="preserve">
<path fill="#FB656B" d="M17,26.3l0,18l-15,0l0-24c0-5,4-9,9-9l78,0c5,0,9,4,9,9v24l-15,0v-18L17,26.3z M51.8,45.6l20.4,28.1
	c0.5,0.7,0.4,1.7-0.4,2.2c-0.3,0.2-0.6,0.3-0.9,0.3l-11.9,0l0,37.5H41l0-37.5l-11.9,0c-0.9,0-1.6-0.7-1.6-1.6c0-0.3,0.1-0.6,0.3-0.9
	l20.4-28.1c0.7-1,2.1-1.2,3-0.5C51.5,45.2,51.6,45.4,51.8,45.6z"/>
</svg>
