<svg xmlns="http://www.w3.org/2000/svg" xmlns:xlink="http://www.w3.org/1999/xlink" viewBox="0 0 59 84" version="1.1" x="0px" y="0px"><title>Group 17</title><desc>Created with Sketch.</desc><g stroke="none" stroke-width="1" fill="none" fill-rule="evenodd"><g transform="translate(-606.000000, -513.000000)" fill="#F9B602"><g transform="translate(606.000000, 513.000000)"><path d="M12.3872,50.0391 C16.6072,50.0391 21.8332,51.3221 25.0002,56.7661 C30.2702,47.7061 41.2422,50.1701 43.7932,50.8931 C45.8532,49.2101 47.2982,46.9021 47.9102,44.3111 C41.3742,37.3071 41.3742,24.6941 47.9102,17.6891 C47.3002,15.1071 45.8632,12.8061 43.8152,11.1261 C39.9272,12.4451 36.6432,12.3041 34.0472,10.7051 C30.5122,8.5261 29.4052,4.3201 29.1052,2.7321 C26.4382,1.8001 23.5622,1.8001 20.8952,2.7321 C20.5952,4.3201 19.4882,8.5261 15.9522,10.7051 C13.3572,12.3061 10.0722,12.4461 6.1842,11.1261 C4.1362,12.8071 2.6992,15.1081 2.0892,17.6891 C8.6252,24.6931 8.6252,37.3071 2.0892,44.3111 C2.7012,46.9011 4.1462,49.2101 6.2072,50.8931 C7.2252,50.6041 9.5852,50.0391 12.3872,50.0391 M25.0002,60.0001 C24.5992,60.0001 24.2372,59.7611 24.0802,59.3921 C19.4492,48.5301 6.8632,52.7581 6.3292,52.9441 C6.0132,53.0531 5.6652,52.9991 5.4002,52.8001 C2.6232,50.7171 0.7192,47.6961 0.0392,44.2931 C-0.0268,43.9651 0.0562,43.5291 0.2932,43.2931 C6.4962,37.0891 6.4962,24.9111 0.2932,18.7071 C0.0562,18.4701 -0.0468,18.1311 0.0192,17.8031 C0.7192,14.3041 2.6232,11.2831 5.4002,9.2001 C5.6712,8.9971 6.0282,8.9441 6.3452,9.0611 C9.8562,10.3531 12.7312,10.3351 14.8932,9.0091 C18.3842,6.8661 19.0012,1.9351 19.0072,1.8851 C19.0492,1.5211 19.2882,1.2071 19.6282,1.0721 C23.0922,-0.3149 26.9082,-0.3149 30.3712,1.0721 C30.7122,1.2071 30.9512,1.5211 30.9932,1.8851 C30.9992,1.9351 31.6162,6.8661 35.1062,9.0091 C37.2682,10.3361 40.1452,10.3541 43.6542,9.0611 C43.9722,8.9451 44.3292,8.9961 44.5992,9.2001 C47.3762,11.2821 49.2802,14.3031 49.9612,17.7061 C50.0262,18.0351 49.9432,18.4711 49.7072,18.7071 C43.5032,24.9111 43.5032,37.0891 49.7072,43.2931 C49.9432,43.5301 50.0462,43.8691 49.9802,44.1971 C49.2802,47.6971 47.3762,50.7181 44.5992,52.8001 C44.3332,53.0001 43.9832,53.0521 43.6712,52.9441 C43.1372,52.7581 30.5502,48.5301 25.9202,59.3921 C25.7622,59.7611 25.4012,60.0001 25.0002,60.0001"/><path d="M12.4087,46.0088 C17.4017,46.0088 21.7327,47.5508 24.9997,50.4798 C28.2667,47.5508 32.5977,46.0088 37.5917,46.0088 C39.2197,46.0088 40.8817,46.1688 42.5407,46.4838 C42.8737,46.0538 43.1617,45.5938 43.4027,45.1068 C37.6077,37.0738 37.6077,24.9258 43.4017,16.8928 C43.1787,16.4398 42.9137,16.0098 42.6107,15.6068 C41.3397,15.8798 40.1037,16.0188 38.9297,16.0188 C30.2687,16.0188 26.8957,9.0578 25.8517,6.0798 C25.2877,6.0228 24.7117,6.0228 24.1477,6.0798 C23.1027,9.0578 19.7287,16.0178 11.0707,16.0188 C9.8967,16.0188 8.6607,15.8808 7.3897,15.6068 C7.0857,16.0098 6.8217,16.4398 6.5987,16.8928 C12.3927,24.9258 12.3927,37.0738 6.5987,45.1068 C6.8387,45.5938 7.1257,46.0548 7.4587,46.4838 C9.1187,46.1688 10.7807,46.0088 12.4087,46.0088 M24.9997,52.8598 C24.7337,52.8598 24.4777,52.7528 24.2897,52.5638 C21.3357,49.5838 17.2277,48.0088 12.4087,48.0088 C10.7257,48.0088 9.0007,48.1948 7.2807,48.5598 C6.9267,48.6348 6.5647,48.5148 6.3267,48.2478 C5.5627,47.3928 4.9547,46.4218 4.5207,45.3608 C4.3857,45.0308 4.4357,44.6548 4.6527,44.3728 C10.4017,36.8738 10.4017,25.1258 4.6527,17.6268 C4.4357,17.3448 4.3857,16.9678 4.5207,16.6388 C4.9417,15.6128 5.5247,14.6698 6.2547,13.8338 C6.5007,13.5508 6.8837,13.4318 7.2477,13.5218 C8.5807,13.8508 9.8667,14.0188 11.0697,14.0188 C18.8077,14.0178 21.5967,7.6278 22.4377,4.8808 C22.5477,4.5198 22.8517,4.2518 23.2237,4.1878 C24.3857,3.9878 25.6127,3.9878 26.7757,4.1878 C27.1477,4.2518 27.4527,4.5198 27.5627,4.8818 C28.4027,7.6288 31.1907,14.0188 38.9297,14.0188 C40.1337,14.0188 41.4197,13.8508 42.7517,13.5208 C43.1137,13.4308 43.4987,13.5508 43.7447,13.8338 C44.4747,14.6688 45.0587,15.6128 45.4797,16.6388 C45.6157,16.9678 45.5647,17.3448 45.3487,17.6268 C39.5977,25.1258 39.5977,36.8738 45.3487,44.3728 C45.5647,44.6548 45.6157,45.0308 45.4807,45.3608 C45.0457,46.4198 44.4387,47.3908 43.6737,48.2478 C43.4337,48.5158 43.0727,48.6348 42.7197,48.5598 C40.9997,48.1948 39.2737,48.0088 37.5917,48.0088 C32.7727,48.0088 28.6637,49.5838 25.7097,52.5638 C25.5227,52.7528 25.2667,52.8598 24.9997,52.8598"/><path d="M31.0001,26 L19.0001,26 C18.4481,26 18.0001,25.552 18.0001,25 C18.0001,24.448 18.4481,24 19.0001,24 L31.0001,24 C31.5521,24 32.0001,24.448 32.0001,25 C32.0001,25.552 31.5521,26 31.0001,26"/><path d="M31.0001,31 L19.0001,31 C18.4481,31 18.0001,30.552 18.0001,30 C18.0001,29.448 18.4481,29 19.0001,29 L31.0001,29 C31.5521,29 32.0001,29.448 32.0001,30 C32.0001,30.552 31.5521,31 31.0001,31"/><path d="M31.0001,36 L19.0001,36 C18.4481,36 18.0001,35.552 18.0001,35 C18.0001,34.448 18.4481,34 19.0001,34 L31.0001,34 C31.5521,34 32.0001,34.448 32.0001,35 C32.0001,35.552 31.5521,36 31.0001,36"/><path d="M26,19 C26,19.552 25.552,20 25,20 C24.448,20 24,19.552 24,19 C24,18.448 24.448,18 25,18 C25.552,18 26,18.448 26,19"/><path d="M26,41 C26,41.552 25.552,42 25,42 C24.448,42 24,41.552 24,41 C24,40.448 24.448,40 25,40 C25.552,40 26,40.448 26,41"/></g></g></g></svg>