<svg height="512pt" viewBox="-76 0 512 512" width="512pt" xmlns="http://www.w3.org/2000/svg"><path d="m180 0c-99.253906 0-180 80.566406-180 179.601562 0 34.25 19.496094 87.761719 59.601562 163.59375 32.363282 61.1875 70.492188 121.789063 90.339844 152.46875 6.617188 10.230469 17.855469 16.335938 30.058594 16.335938s23.441406-6.105469 30.058594-16.335938c19.847656-30.679687 57.976562-91.277343 90.339844-152.46875 40.105468-75.832031 59.601562-129.34375 59.601562-163.59375 0-99.035156-80.746094-179.601562-180-179.601562zm4.800781 479.390625c-1.46875 2.269531-3.640625 2.609375-4.800781 2.609375s-3.332031-.339844-4.796875-2.605469c-90.878906-140.464843-145.136719-252.539062-145.136719-299.792969 0-82.492187 67.261719-149.601562 149.933594-149.601562s149.933594 67.109375 149.933594 149.601562c0 47.253907-54.257813 159.328126-145.132813 299.789063zm0 0"/><path d="m268.5625 121.8125c-24.441406-23.585938-64.148438-23.003906-88.503906 1.300781l-.058594.058594-.058594-.058594c-24.355468-24.304687-64.058594-24.886719-88.503906-1.300781-12.195312 11.769531-18.988281 27.566406-19.132812 44.476562-.140626 16.921876 6.382812 32.824219 18.371093 44.785157.085938.085937.175781.171875.261719.253906l64.492188 61.289063c6.890624 6.546874 15.730468 9.820312 24.570312 9.820312s17.679688-3.273438 24.570312-9.820312l64.492188-61.289063c.085938-.082031.175781-.167969.261719-.253906 11.988281-11.960938 18.511719-27.863281 18.371093-44.785157-.140624-16.914062-6.9375-32.710937-19.132812-44.476562zm-20.382812 67.929688-64.34375 61.152343c-.003907 0-.003907 0-.003907 0-2.148437 2.042969-5.515625 2.042969-7.664062 0l-64.347657-61.152343c-6.167968-6.214844-9.519531-14.445313-9.449218-23.199219.074218-8.808594 3.613281-17.03125 9.96875-23.164063 12.722656-12.277344 33.511718-11.855468 46.34375.949219l10.6875 10.664063c5.867187 5.855468 15.390625 5.855468 21.257812 0l10.6875-10.664063c12.832032-12.800781 33.621094-13.226563 46.34375-.949219 6.355469 6.132813 9.894532 14.355469 9.96875 23.164063.074219 8.753906-3.28125 16.984375-9.449218 23.199219zm0 0"/></svg>