<svg xmlns:dc="http://purl.org/dc/elements/1.1/" xmlns:cc="http://creativecommons.org/ns#" xmlns:rdf="http://www.w3.org/1999/02/22-rdf-syntax-ns#" xmlns:svg="http://www.w3.org/2000/svg" xmlns="http://www.w3.org/2000/svg" xmlns:sodipodi="http://sodipodi.sourceforge.net/DTD/sodipodi-0.dtd" xmlns:inkscape="http://www.inkscape.org/namespaces/inkscape" viewBox="0 0 16.933333 21.1666675" version="1.1" enable-background="new" x="0px" y="0px"><g transform="translate(0,-280.06665)"><path style="color:#000000;font-style:normal;font-variant:normal;font-weight:normal;font-stretch:normal;font-size:medium;line-height:normal;font-family:sans-serif;font-variant-ligatures:normal;font-variant-position:normal;font-variant-caps:normal;font-variant-numeric:normal;font-variant-alternates:normal;font-feature-settings:normal;text-indent:0;text-align:start;text-decoration:none;text-decoration-line:none;text-decoration-style:solid;text-decoration-color:#000000;letter-spacing:normal;word-spacing:normal;text-transform:none;writing-mode:lr-tb;direction:ltr;text-orientation:mixed;dominant-baseline:auto;baseline-shift:baseline;text-anchor:start;white-space:normal;shape-padding:0;clip-rule:nonzero;display:inline;overflow:visible;visibility:visible;opacity:1;isolation:auto;mix-blend-mode:normal;color-interpolation:sRGB;color-interpolation-filters:linearRGB;solid-color:#000000;solid-opacity:1;vector-effect:none;fill:#000000;fill-opacity:1;fill-rule:nonzero;stroke:none;stroke-width:0.52916676;stroke-linecap:round;stroke-linejoin:round;stroke-miterlimit:4;stroke-dasharray:none;stroke-dashoffset:0;stroke-opacity:1;paint-order:normal;color-rendering:auto;image-rendering:auto;shape-rendering:auto;text-rendering:auto;enable-background:accumulate" d="m 3.2546453,281.11625 a 0.26460982,0.26460982 0 0 0 -0.0011,5.3e-4 0.26460982,0.26460982 0 0 0 -0.238228,0.26355 v 1.15238 h -0.380853 c -0.534112,0 -0.97255,0.43845 -0.97255,0.97256 0,0.5341 0.438438,0.97255 0.97255,0.97255 h 0.380855 v 3.08405 h -0.380855 c -0.534112,0 -0.97255,0.43637 -0.97255,0.97048 0,0.53411 0.438438,0.97307 0.97255,0.97307 h 0.380855 v 3.08353 h -0.380855 c -0.534112,0 -0.97255,0.43896 -0.97255,0.97307 0,0.5341 0.438438,0.97255 0.97255,0.97255 h 0.380855 v 1.15238 a 0.26460982,0.26460982 0 0 0 0.265617,0.26355 H 15.007352 a 0.26460982,0.26460982 0 0 0 0.264067,-0.26355 v -14.30662 a 0.26460982,0.26460982 0 0 0 -0.264067,-0.26355 H 3.2809763 a 0.26460982,0.26460982 0 0 0 -0.02635,-5.3e-4 z m 0.289904,0.52968 H 14.741798 v 13.77539 H 3.5445493 v -0.88677 h 0.402558 c 0.06675,0 0.131726,-0.007 0.194821,-0.0202 0.126063,-0.026 0.243806,-0.0767 0.347266,-0.14676 0.05178,-0.0351 0.100073,-0.0753 0.144176,-0.11937 0.02418,-0.0242 0.04406,-0.052 0.06563,-0.0786 0.13589,-0.16737 0.22066,-0.37712 0.22066,-0.60772 0,-0.26705 -0.109373,-0.51037 -0.285771,-0.68677 -0.08819,-0.0882 -0.193315,-0.15984 -0.309541,-0.2093 -0.05796,-0.0247 -0.11897,-0.0438 -0.181901,-0.0568 -1.67e-4,-3e-5 -2.65e-4,4e-5 -5.3e-4,0 -0.06311,-0.013 -0.128055,-0.0202 -0.19482,-0.0202 h -0.402559 v -3.08353 h 0.402559 c 0.534111,0 0.972552,-0.43896 0.972552,-0.97307 0,-0.46717 -0.335703,-0.85979 -0.777213,-0.95085 -1.67e-4,-3e-5 -2.65e-4,4e-5 -5.29e-4,0 -0.06311,-0.013 -0.128056,-0.0196 -0.194821,-0.0196 h -0.402537 v -3.08404 h 0.402558 c 0.33382,0 0.630214,-0.17107 0.805638,-0.42994 0.03508,-0.0518 0.06519,-0.10726 0.08992,-0.16537 0.04946,-0.11622 0.077,-0.24371 0.077,-0.37724 0,-0.0668 -0.0066,-0.13222 -0.01963,-0.19534 -0.02606,-0.12621 -0.07711,-0.24371 -0.147278,-0.34726 -0.03516,-0.0519 -0.07516,-0.1 -0.119374,-0.14418 -0.04401,-0.044 -0.09201,-0.0838 -0.143659,-0.11885 -1.27e-4,-9e-5 -2.64e-4,8e-5 -5.29e-4,0 -0.05178,-0.0351 -0.106738,-0.0657 -0.164846,-0.0904 -0.116223,-0.0495 -0.24371,-0.0765 -0.37724,-0.0765 h -0.402558 z m -0.910021,1.41594 h 0.646472 0.666107 c 0.09379,0 0.179507,0.0273 0.250116,0.0744 0.02355,0.0157 0.04522,0.0339 0.06511,0.0538 0.07956,0.0796 0.128159,0.19022 0.128159,0.31522 0,0.25002 -0.193365,0.44339 -0.443386,0.44339 h -0.666107 -0.646472 c -0.250111,0 -0.443384,-0.19328 -0.443384,-0.44339 0,-0.2501 0.193273,-0.44338 0.443384,-0.44338 z m 8.4196397,1.4304 c -0.35578,0.003 -0.713992,0.0903 -1.042829,0.2651 a 0.26460982,0.26460982 0 1 0 0.248047,0.46664 c 0.67346,-0.35809 1.499812,-0.23445 2.039152,0.30489 0.539369,0.53937 0.66304,1.36362 0.30489,2.03709 a 0.26460982,0.26460982 0 1 0 0.466637,0.24804 c 0.466352,-0.87692 0.305943,-1.95799 -0.396356,-2.6603 -0.351131,-0.35113 -0.797756,-0.56674 -1.265558,-0.63665 -0.116946,-0.0175 -0.235389,-0.0258 -0.353983,-0.0248 z m -3.6070145,0.30799 a 0.26460982,0.26460982 0 0 0 -0.1839674,0.076 l -0.6717956,0.67386 c -0.8527389,0.85272 -0.8527389,2.23701 0,3.08973 l 2.6933763,2.69338 c 0.8527202,0.85273 2.2390632,0.85272 3.0918012,0 l 0.671793,-0.6718 a 0.26460982,0.26460982 0 0 0 0,-0.3731 l -1.489831,-1.49035 a 0.26460982,0.26460982 0 0 0 -0.375171,0 l -0.310574,0.31058 c -0.335121,0.33512 -0.86429,0.33512 -1.1994114,0 l -0.8573109,-0.85731 c -0.3351292,-0.33513 -0.3351292,-0.86377 0,-1.1989 l 0.3126423,-0.31057 a 0.26460982,0.26460982 0 0 0 0,-0.37517 l -1.4903477,-1.49035 a 0.26460982,0.26460982 0 0 0 -0.1912038,-0.076 z m 0.00362,0.63872 1.115695,1.11518 -0.1235075,0.12506 c -0.5359691,0.53596 -0.5359691,1.40914 0,1.9451 l 0.8578295,0.85938 c 0.5359585,0.53596 1.4091415,0.53596 1.9451005,0 l 0.125058,-0.12506 1.115176,1.11518 -0.484209,0.48628 c -0.651888,0.65188 -1.690105,0.65187 -2.3419748,0 l -2.6933763,-2.69493 c -0.6518884,-0.65188 -0.6518884,-1.6901 0,-2.34198 z m 3.4220145,0.31988 c -0.305591,-0.0232 -0.619334,0.0578 -0.8810831,0.25012 a 0.2649653,0.2649653 0 0 0 0.3126421,0.42788 c 0.315939,-0.23215 0.750107,-0.1992 1.027327,0.078 0.277209,0.27721 0.31016,0.70932 0.07803,1.02526 a 0.26474574,0.26474574 0 0 0 0.425815,0.31471 c 0.38459,-0.5235 0.328588,-1.2553 -0.130742,-1.71463 -0.229681,-0.22967 -0.526401,-0.35814 -0.831989,-0.38137 z m -8.2382567,2.33216 h 1.312584 c 0.156165,0 0.290341,0.0743 0.368972,0.1912 7.4e-5,1.1e-4 -7.6e-5,5.3e-4 0,5.3e-4 0.01561,0.0234 0.02935,0.0484 0.04031,0.0749 0.02215,0.0532 0.03411,0.11197 0.03411,0.17467 0,0.0625 -0.01209,0.12189 -0.03411,0.17518 -0.02204,0.0533 -0.05426,0.10076 -0.09405,0.14056 -0.03979,0.0398 -0.08728,0.0715 -0.14056,0.0935 -0.05328,0.022 -0.112162,0.0341 -0.174667,0.0341 h -0.666108 -0.646472 c -0.250111,0 -0.443384,-0.19328 -0.443384,-0.44338 0,-0.25011 0.193273,-0.44132 0.443384,-0.44132 z m 0,5.0276 h 0.646477 0.666107 c 0.156313,0 0.29037,0.0756 0.368972,0.19327 0.04717,0.0706 0.07441,0.15636 0.07441,0.25011 0,0.25002 -0.193135,0.44339 -0.443386,0.44339 h -0.666107 -0.646472 c -0.250111,0 -0.443384,-0.19328 -0.443384,-0.44339 0,-0.2501 0.193273,-0.44338 0.443384,-0.44338 z"/></g></svg>