<?xml version="1.0" encoding="utf-8"?>
<!-- Generator: Adobe Illustrator 23.0.2, SVG Export Plug-In . SVG Version: 6.00 Build 0)  -->
<svg version="1.1" id="Слой_1" xmlns="http://www.w3.org/2000/svg" xmlns:xlink="http://www.w3.org/1999/xlink" x="0px" y="0px"
	 viewBox="0 0 540 675" style="enable-background:new 0 0 540 675;" xml:space="preserve">
<path d="M153.4,475.4c0,10.2-8.2,18.4-18.4,18.4s-18.4-8.2-18.4-18.4c0-10.2,8.2-18.4,18.4-18.4S153.4,465.2,153.4,475.4z
	 M429.5,457c-10.2,0-18.4,8.2-18.4,18.4c0,10.2,8.2,18.4,18.4,18.4c10.2,0,18.4-8.2,18.4-18.4C448,465.2,439.7,457,429.5,457z
	 M190.2,128.7v-18.5c0-1-0.8-1.8-1.8-1.8H7.9c-1,0-1.8,0.8-1.8,1.8v18.5c0,1,0.8,1.8,1.8,1.8h180.5
	C189.4,130.5,190.2,129.7,190.2,128.7z M540,352.7v98.2c0,0,0,0,0,0c0,6.8-5.5,12.3-12.3,12.3h-38.1c1.7,8.1,1.7,16.4,0,24.5
	c-6.8,33.2-39.2,54.6-72.4,47.8c-33.2-6.8-54.6-39.2-47.8-72.4H195.1c1.7,8.1,1.7,16.4,0,24.5c-6.8,33.2-39.2,54.6-72.4,47.8
	c-33.2-6.8-54.6-39.2-47.8-72.4H12.3c0,0,0,0,0,0c-6.8,0-12.3-5.5-12.3-12.3V156.3c0,0,0,0,0,0c0-6.8,5.5-12.3,12.3-12.3h319.1
	c0,0,0,0,0,0c6.8,0,12.3,5.5,12.3,12.3v61.4h85.9c4.6,0,8.9,2.6,11,6.8l47.3,94.5l45.4,22.7C537.4,343.8,540,348,540,352.7z
	 M171.8,475.4c0-20.3-16.5-36.8-36.8-36.8s-36.8,16.5-36.8,36.8c0,20.3,16.5,36.8,36.8,36.8C155.3,512.2,171.8,495.7,171.8,475.4z
	 M319.1,168.6H24.5V403h53.4c6.1,0,11,4.9,11,11s-4.9,11-11,11H24.5v13.5h61.4c0.1,0,0.2,0.1,0.3,0.1c11.5-15.4,29.6-24.5,48.8-24.6
	c19.2,0.1,37.3,9.2,48.8,24.6c0.1,0,0.2-0.1,0.3-0.1h135v-13.5h-124c-6.1,0-11-4.9-11-11s4.9-11,11-11h124V204.2h-259
	c-6.1,0-11-4.9-11-11c0-6.1,4.9-11,11-11h259V168.6z M343.6,315.8h115.1L422,242.2h-78.3V315.8z M466.4,475.4
	c0-20.3-16.5-36.8-36.8-36.8c-20.3,0-36.8,16.5-36.8,36.8c0,20.3,16.5,36.8,36.8,36.8C449.9,512.2,466.3,495.7,466.4,475.4z
	 M515.5,360.2l-39.7-19.8H343.6v98.2h36.8c0.1,0,0.2,0.1,0.3,0.1c3.6-4.8,7.8-9.1,12.7-12.7c27-20,65-14.3,85,12.7
	c0.1,0,0.2-0.1,0.3-0.1h36.8V360.2z"/>
</svg>
